@startuml
scale 600 width

[*] -> State1
State1 --> State2 : Succeeded
State1 --> [*] : Aborted
State2 --> [*] : Succeeded
state State3 {
	state "Accumulate Enough Data\nLong State Name" as long1
	long1 : Just a test
	[*] --> long1
	long1 --> long1 : New Data
	long1 --> ProcessData : Enouhg Dta
}

State3 --> State3 : Failed
State3 --> [*] : Succeeded / Save Result
State3 --> [*] : Aborted
@enduml