@startuml
skinparam backgroundColor LightYellow
skinparam state {
StartColor MediumBlue
EndColor Red
BackgroundColor Peru
BackgroundColor <<Warning >> Olive
BorderColor Gray
FontName Impact
}
[*] --> NotShooting
state "Not Shooting State" as NotShooting {
	state "Idle mode" as Idle <<Warning >>
	state "Configuring mode" as Configuring
	[*] --> Idle
	Idle --> Configuring : EvConfig
	Configuring --> Idle : EvConfig
}
NotShooting --> [*]
@enduml